<?xml version="1.0" encoding="UTF-8"?>
<svg width="26px" height="26px" viewBox="0 0 26 26" version="1.1" xmlns="http://www.w3.org/2000/svg" xmlns:xlink="http://www.w3.org/1999/xlink">
    <title>T Logo</title>
    <g id="Icons" stroke="none" stroke-width="1" fill="none" fill-rule="evenodd">
        <g id="TeslaIcon" fill="#171A20" fill-rule="nonzero">
            <g id="T-Logo">
                <path d="M12.9707285,25.8278146 L16.5986755,5.42384106 C20.0570199,5.42384106 21.1478146,5.80350993 21.3053642,7.35145695 C21.3053642,7.35145695 23.6298675,6.4905298 24.7964238,4.72907285 C20.2317881,2.60860927 15.6421854,2.51390728 15.6421854,2.51390728 L12.9638411,5.77423841 L12.9707285,5.77423841 L10.293245,2.51390728 C10.293245,2.51390728 5.70450331,2.60860927 1.1381457,4.72476821 C2.3081457,6.4810596 4.6292053,7.34629139 4.6292053,7.34629139 C4.78675497,5.79662252 5.87754967,5.41953642 9.31264901,5.41609272 L12.9707285,25.8278146 Z" id="Path"></path>
                <path d="M12.9690066,1.57119205 C16.6598013,1.54278146 20.8895364,2.14198675 25.2105298,4.02741722 C25.7882119,2.98655629 25.9371523,2.52682119 25.9371523,2.52682119 C21.8102142,0.880902095 17.411129,0.0238047091 12.9681457,0 L12.9681457,0 C8.52544203,0.0238104475 4.12664,0.88090956 2.44690214e-15,2.52682119 C0.20862081,3.04259839 0.451365634,3.54390671 0.726622517,4.02741722 C5.0510596,2.14198675 9.27735099,1.54278146 12.9681457,1.57119205 L12.9690066,1.57119205 Z" id="Path"></path>
            </g>
        </g>
    </g>
</svg>